<svg xmlns="http://www.w3.org/2000/svg" width="17.067" height="16" viewBox="0 0 17.067 16">
  <path id="Union_9" data-name="Union 9" d="M12.287,0A16.563,16.563,0,0,0,5.334,1.307v8.809c1.051.7,2.688,2.061,2.688,3.752,0,1.777.355,2.133,1.066,2.133A2.613,2.613,0,0,0,11.4,13.154a6.844,6.844,0,0,0-.535-2.844h3.357a2.845,2.845,0,0,0,2.8-3.326l-.8-4.623A2.836,2.836,0,0,0,13.428,0ZM1.242.18A1.243,1.243,0,0,0,0,1.422V9.6a1.245,1.245,0,0,0,1.242,1.246H3.02A1.247,1.247,0,0,0,4.268,9.6V1.422A1.245,1.245,0,0,0,3.02.18Z" fill="#efa92f"/>
</svg>
