<svg xmlns="http://www.w3.org/2000/svg" width="17.066" height="16" viewBox="0 0 17.066 16">
    <path data-name="Union 8" d="M20372.289 21416a16.563 16.563 0 0 1-6.953-1.307v-8.809c1.051-.7 2.688-2.061 2.688-3.752 0-1.777.355-2.133 1.066-2.133a2.613 2.613 0 0 1 2.313 2.846 6.844 6.844 0 0 1-.535 2.844h3.357a2.845 2.845 0 0 1 2.8 3.326l-.8 4.623a2.836 2.836 0 0 1-2.8 2.361zm-11.045-.18a1.243 1.243 0 0 1-1.242-1.242v-8.178a1.245 1.245 0 0 1 1.242-1.246h1.777a1.247 1.247 0 0 1 1.248 1.246v8.178a1.245 1.245 0 0 1-1.248 1.242z" transform="translate(-20360.002 -21400)" style="fill:#b5b5b5"/>
</svg>
