<svg xmlns="http://www.w3.org/2000/svg" width="18.643" height="12" viewBox="0 0 18.643 12">
  <path id="Union_10" data-name="Union 10" d="M20360.221,21406.623a.993.993,0,0,1,0-1.242c1.014-1.262,4.635-5.379,9.1-5.379s8.09,4.117,9.1,5.379a.988.988,0,0,1,0,1.242c-1.012,1.262-4.633,5.379-9.1,5.379S20361.234,21407.885,20360.221,21406.623Zm4.758-.621a4.345,4.345,0,1,0,4.346-4.346A4.345,4.345,0,0,0,20364.979,21406Zm1.346,0a3,3,0,1,1,3,3A3,3,0,0,1,20366.324,21406Zm1.1-.207h.992a.688.688,0,0,1,.684-.682v-.994A1.692,1.692,0,0,0,20367.422,21405.795Z" transform="translate(-20360.002 -21400.002)" fill="#efa92f"/>
</svg>
